<?xml version="1.0" encoding="UTF-8"?>
<svg version="1.1" xmlns="http://www.w3.org/2000/svg" width="1080" height="268">
<path d="M0 0 C2.12464655 1.24799776 4.24965936 2.49537214 6.375 3.7421875 C7.46554688 4.3825293 8.55609375 5.02287109 9.6796875 5.68261719 C15.1047113 8.85625611 20.55253414 11.9900913 26 15.125 C34.34819376 19.93315262 42.68243427 24.76405825 51 29.625 C59.27777064 34.46176422 67.56940004 39.27367442 75.875 44.0625 C76.95233398 44.68366699 78.02966797 45.30483398 79.13964844 45.94482422 C84.64107645 49.11556971 90.14423519 52.28329211 95.6484375 55.44921875 C101.05512298 58.55963623 106.45430646 61.68282662 111.8515625 64.80957031 C114.9976288 66.62363274 118.15425499 68.41818059 121.3125 70.2109375 C123.29194879 71.34846754 125.27112822 72.48646647 127.25 73.625 C128.59819824 74.38031006 128.59819824 74.38031006 129.97363281 75.15087891 C136.47065469 78.91855256 143.34004485 84.147148 145.625 91.6875 C146.73616959 100.39166176 146.38797006 107.71126975 141.30859375 115.078125 C138.62515599 118.03853349 135.70312376 120.02217426 132.3125 122.0625 C131.28503662 122.69321411 131.28503662 122.69321411 130.23681641 123.33666992 C122.81363221 127.83765271 115.21299144 132.029387 107.62402344 136.2421875 C99.79810199 140.59226543 92.06940164 145.08220141 84.37597656 149.66162109 C77.32570387 153.85411921 70.23476658 157.97176936 63.125 162.0625 C54.73460494 166.89067234 46.35723701 171.73964497 38 176.625 C28.44291031 182.21125876 18.86013812 187.75177161 9.26489258 193.2722168 C2.19594037 197.34349028 -4.8497175 201.45134302 -11.83959961 205.65722656 C-19.42989035 210.17825736 -25.16472398 211.58438603 -34 210.625 C-37.19343442 209.59341304 -40.08182266 208.27568617 -43 206.625 C-43 205.965 -43 205.305 -43 204.625 C-43.5775 204.41875 -44.155 204.2125 -44.75 204 C-49.61160717 201.02901784 -51.5446478 195.9149214 -53 190.625 C-53.18532005 188.0658514 -53.27900313 185.61764148 -53.26742554 183.06134033 C-53.27195665 182.32006291 -53.27648776 181.57878549 -53.28115618 180.81504512 C-53.29377285 178.34180187 -53.29218159 175.8687796 -53.29052734 173.39550781 C-53.29651437 171.61776447 -53.30332031 169.84002372 -53.31088257 168.06228638 C-53.32853359 163.23979605 -53.33323761 158.41737672 -53.33451414 153.59485722 C-53.33593698 150.5792295 -53.34020913 147.56361977 -53.34550858 144.54799652 C-53.36400695 134.01961626 -53.37217956 123.4912866 -53.37060547 112.96289062 C-53.36940461 103.16195795 -53.39049651 93.36124569 -53.4220928 83.56036878 C-53.4482813 75.13552228 -53.45897166 66.71074765 -53.45769465 58.28586078 C-53.45718571 53.25868399 -53.46283115 48.23170306 -53.48405075 43.20456696 C-53.50347612 38.47338172 -53.50352827 33.74257829 -53.48901749 29.01137924 C-53.48693351 27.2804572 -53.49160564 25.54951099 -53.5037384 23.81863022 C-53.57504237 12.9365445 -53.2922581 3.42809205 -45.9375 -5.25 C-30.44051064 -19.223781 -14.85036694 -8.78065321 0 0 Z M29 64.625 C29.85718628 65.03951416 29.85718628 65.03951416 30.73168945 65.46240234 C32.99351537 66.62167637 35.13288957 67.88803655 37.29296875 69.2265625 C38.08767578 69.71640625 38.88238281 70.20625 39.70117188 70.7109375 C41.37069269 71.74438793 43.03996006 72.77824791 44.70898438 73.8125 C45.49982422 74.29976562 46.29066406 74.78703125 47.10546875 75.2890625 C47.82887451 75.73717285 48.55228027 76.1852832 49.29760742 76.64697266 C50.81729326 77.70802439 50.81729326 77.70802439 52 77.625 C52 70.695 52 63.765 52 56.625 C43.40142072 56.625 35.89718369 59.71738853 29 64.625 Z M-4 58.625 C-4 88.985 -4 119.345 -4 150.625 C0.07122217 149.26792594 2.80573414 148.34155952 6.3046875 146.2421875 C7.05234375 145.79746094 7.8 145.35273438 8.5703125 144.89453125 C9.33085938 144.43433594 10.09140625 143.97414063 10.875 143.5 C11.65875 143.03207031 12.4425 142.56414062 13.25 142.08203125 C15.16982472 140.93481892 17.08630561 139.7823993 19 138.625 C19.495 139.615 19.495 139.615 20 140.625 C18.75283203 140.97884766 18.75283203 140.97884766 17.48046875 141.33984375 C13.40233846 142.84568535 9.98336974 144.88912162 6.3125 147.1875 C-0.6402027 151.50506757 -0.6402027 151.50506757 -4 152.625 C-4 154.605 -4 156.585 -4 158.625 C4.25 158.625 12.5 158.625 21 158.625 C21.03738281 154.90347656 21.07476562 151.18195313 21.11328125 147.34765625 C21.15955807 143.72349334 21.21076949 140.09943119 21.26245117 136.4753418 C21.29560332 133.96629006 21.32366514 131.45716548 21.34643555 128.94799805 C21.3801597 125.33090319 21.43248627 121.71446998 21.48828125 118.09765625 C21.49467117 116.98479752 21.5010611 115.87193878 21.50764465 114.72535706 C21.65792591 106.67443362 22.70409205 100.10166061 27.1875 93.3125 C34.39028441 86.42983934 42.31448878 85.6588467 52 84.625 C52.48664593 82.29251909 52.48664593 82.29251909 52 79.625 C49.50799737 77.45075351 49.50799737 77.45075351 46.1875 75.6875 C45.60524658 75.34976563 45.02299316 75.01203125 44.4230957 74.6640625 C42.62648526 73.62976131 40.81621345 72.62441094 39 71.625 C37.3603125 70.71041016 37.3603125 70.71041016 35.6875 69.77734375 C33.13566701 68.37184199 30.57505916 66.98735595 28 65.625 C27.15801693 66.72258507 26.32669329 67.82835317 25.5 68.9375 C25.0359375 69.55238281 24.571875 70.16726562 24.09375 70.80078125 C22.74288717 72.69933005 22.74288717 72.69933005 23 75.625 C22.34 75.625 21.68 75.625 21 75.625 C21 70.015 21 64.405 21 58.625 C12.75 58.625 4.5 58.625 -4 58.625 Z " fill="#FFFFFF" transform="translate(96,33.375)"/>
<path d="M0 0 C0.495 10.395 0.495 10.395 1 21 C2.98 18.36 4.96 15.72 7 13 C13.50629925 6.05086362 21.39678953 0.63616014 31.11547852 -0.17700195 C44.28074883 -0.53343414 54.793708 -0.69986931 65.3125 8.1875 C74.13010492 16.78152064 79.37591627 26.35951684 80.27734375 38.83984375 C80.36163404 47.91509789 80.36163404 47.91509789 79 52 C59.53 52 40.06 52 20 52 C23.89090327 57.83635491 26.42745454 60.80915151 33 63 C41.63711794 63.62498718 48.54840353 63.78026944 56 59 C57.96386719 57.75634766 57.96386719 57.75634766 60 57 C61.92285156 57.59912109 61.92285156 57.59912109 63.890625 58.7734375 C64.95410156 59.3921875 64.95410156 59.3921875 66.0390625 60.0234375 C66.76867187 60.46945313 67.49828125 60.91546875 68.25 61.375 C68.99507813 61.81328125 69.74015625 62.2515625 70.5078125 62.703125 C72.34704125 63.78779836 74.17468324 64.89207517 76 66 C71.9139132 74.38443784 65.40220564 79.56429154 56.6875 82.8125 C42.84020239 86.83036874 28.25700715 85.41201223 15.5859375 78.6328125 C6.8756711 73.13297662 0.90688668 65.11578354 -2.34765625 55.32421875 C-4.38389577 44.94793234 -3.63487617 34.17868733 -1 24 C-7.61124427 24.34027321 -13.5945622 24.8429312 -19 29 C-24.2773501 35.43989678 -24.16862317 42.78022879 -24.31640625 50.67578125 C-24.33718735 51.6009404 -24.35796844 52.52609955 -24.37937927 53.47929382 C-24.4445656 56.42362307 -24.50361558 59.36803865 -24.5625 62.3125 C-24.60571464 64.31315983 -24.64932986 66.31381106 -24.69335938 68.31445312 C-24.8009662 73.20954836 -24.90026939 78.10471264 -25 83 C-31.93 83 -38.86 83 -46 83 C-46 56.27 -46 29.54 -46 2 C-39.07 2 -32.14 2 -25 2 C-24.67 4.97 -24.34 7.94 -24 11 C-23.195625 9.9275 -22.39125 8.855 -21.5625 7.75 C-15.27316645 0.47149896 -9.51055389 0 0 0 Z M23.4375 24.6484375 C20.65463462 28.26932485 19.94039658 30.29801708 19 35 C31.87 35 44.74 35 58 35 C56.76003434 27.56020605 54.32336178 24.4529575 48.375 20.0625 C39.67963406 17.32506998 29.97217279 17.75435771 23.4375 24.6484375 Z " fill="#FEFEFE" transform="translate(334,93)"/>
<path d="M0 0 C1.25671509 0.0146228 1.25671509 0.0146228 2.53881836 0.02954102 C13.19914553 0.33518748 19.67413896 3.61163082 27.3671875 11.02734375 C35.70357013 19.92621587 39.71687887 30.20747018 40.125 42.4375 C39.6718805 56.01598111 34.45974461 67.57936697 24.5859375 76.87109375 C16.48339036 83.34344714 6.69942499 85.85869906 -3.58984375 85.24609375 C-12.27435644 84.030481 -18.17267268 81.63982732 -24.375 75.4375 C-24.705 87.9775 -25.035 100.5175 -25.375 113.4375 C-32.305 113.4375 -39.235 113.4375 -46.375 113.4375 C-46.375 76.8075 -46.375 40.1775 -46.375 2.4375 C-39.445 2.4375 -32.515 2.4375 -25.375 2.4375 C-25.045 4.7475 -24.715 7.0575 -24.375 9.4375 C-23.9625 9.03917969 -23.55 8.64085938 -23.125 8.23046875 C-22.5475 7.70066406 -21.97 7.17085938 -21.375 6.625 C-20.818125 6.10292969 -20.26125 5.58085938 -19.6875 5.04296875 C-13.56188224 0.79021723 -7.32276308 -0.0951583 0 0 Z M-21.25 29.25 C-25.09802324 35.02203487 -25.93395825 40.43241676 -24.91015625 47.26953125 C-23.16138476 54.35397051 -18.64213799 58.79372972 -12.578125 62.55078125 C-7.26042936 64.69105946 -0.37448243 64.27811928 5.078125 62.75 C10.52757854 60.25406708 14.14080218 56.55222499 16.734375 51.109375 C18.76384788 45.02095637 18.6796845 37.87297519 16 32 C12.85775405 26.65929222 8.51418272 23.38637694 2.625 21.4375 C-7.57034119 20.19734966 -14.20551504 21.81867916 -21.25 29.25 Z " fill="#FEFEFE" transform="translate(811.375,92.5625)"/>
<path d="M0 0 C3.125 2.25 3.125 2.25 5 4 C5.33 2.02 5.66 0.04 6 -2 C13.26 -2 20.52 -2 28 -2 C28 24.73 28 51.46 28 79 C20.74 79 13.48 79 6 79 C5.505 75.535 5.505 75.535 5 72 C4.41992188 72.40992188 3.83984375 72.81984375 3.2421875 73.2421875 C-6.13882996 79.71292232 -14.69404812 81.91010306 -26.0625 80.375 C-36.34507994 78.40824209 -44.38332826 72.71564938 -50.625 64.4375 C-58.50770784 52.53478594 -59.89712743 39.42234381 -57.375 25.56640625 C-54.28971954 14.97452824 -47.59485532 5.56716419 -38 0 C-36.96359375 -0.61681641 -36.96359375 -0.61681641 -35.90625 -1.24609375 C-25.38377288 -6.45327849 -10.05982662 -6.03997704 0 0 Z M-32.3125 24.3125 C-36.22591966 29.25136118 -37.24144859 33.83342046 -36.8125 40.0625 C-35.76931499 47.73570529 -32.69824049 51.63957776 -26.9375 56.58203125 C-21.81441594 60.3313851 -15.03599322 59.4934639 -9 59 C-2.92840789 57.46251619 0.34262593 53.91142204 3.87109375 48.90234375 C6.95710726 43.70203724 6.51233786 37.84362173 6 32 C4.25331073 25.29137816 -0.17731898 21.45534869 -6 18 C-16.22277949 14.59240684 -25.07132011 16.62091179 -32.3125 24.3125 Z " fill="#FEFEFE" transform="translate(657,97)"/>
<path d="M0 0 C6.93 0 13.86 0 21 0 C21.01458252 1.47799072 21.02916504 2.95598145 21.04418945 4.47875977 C21.10229843 9.97867648 21.1795313 15.4781892 21.26245117 20.9777832 C21.29564115 23.35499499 21.32369141 25.73228446 21.34643555 28.10961914 C21.38008986 31.53305058 21.43241301 34.95577396 21.48828125 38.37890625 C21.49467117 39.43646622 21.5010611 40.49402618 21.50764465 41.58363342 C21.63948702 48.24769298 22.2048797 53.50609963 26.5 58.875 C30.86990894 62.1524317 36.83543113 61.38475298 42 61 C45.30691638 60.03798796 47.07896846 59.27941135 49.1038208 56.4666748 C52.39566462 50.45599649 52.6014846 45.0398278 52.609375 38.28125 C52.62591125 37.18276733 52.64244751 36.08428467 52.65948486 34.95251465 C52.70779597 31.46828525 52.7292991 27.98449183 52.75 24.5 C52.77817367 22.12758243 52.80810304 19.75518502 52.83984375 17.3828125 C52.91683319 11.58834435 52.95751295 5.79523313 53 0 C60.26 0 67.52 0 75 0 C75 26.73 75 53.46 75 81 C67.74 81 60.48 81 53 81 C52.67 79.02 52.34 77.04 52 75 C51.319375 75.598125 50.63875 76.19625 49.9375 76.8125 C41.94903653 82.76135578 33.64952092 83.64841355 23.9375 82.4375 C16.46060285 81.00554926 11.55167511 77.49497121 6.1875 72.25 C0.28129708 63.47506994 -0.56424991 55.53663022 -0.390625 45.1171875 C-0.38496521 43.82177032 -0.37930542 42.52635315 -0.37347412 41.19168091 C-0.35835107 37.78185981 -0.31918942 34.37274267 -0.2746582 30.9631958 C-0.23341339 27.47035235 -0.21540143 23.97739285 -0.1953125 20.484375 C-0.15267794 13.65593528 -0.08244169 6.82807412 0 0 Z " fill="#FEFEFE" transform="translate(890,95)"/>
<path d="M0 0 C11.17835481 7.41943621 11.17835481 7.41943621 12.99609375 12.75390625 C13.06957031 13.32109375 13.14304687 13.88828125 13.21875 14.47265625 C7.42853654 18.27349469 1.45684641 21.46865491 -4.78125 24.47265625 C-6.01822917 22.94270833 -7.25520833 21.41276042 -8.4921875 19.8828125 C-10.28084878 17.92612546 -11.41589033 17.49960388 -14.05859375 17.3046875 C-14.93644531 17.29824219 -15.81429687 17.29179688 -16.71875 17.28515625 C-18.03166016 17.26388672 -18.03166016 17.26388672 -19.37109375 17.2421875 C-22.04369335 17.30602276 -22.04369335 17.30602276 -24.78125 19.47265625 C-25.0314657 22.55631496 -25.0314657 22.55631496 -24.78125 25.47265625 C-20.49362588 26.92738586 -16.20734067 28.35438471 -11.8671875 29.64453125 C-11.17431641 29.85311768 -10.48144531 30.0617041 -9.76757812 30.27661133 C-8.3907681 30.68974986 -7.01191891 31.09617035 -5.63085938 31.49487305 C2.27221749 33.88234196 8.58040721 37.46327561 13.21875 44.47265625 C16.26957126 51.96103572 16.16511024 59.80827196 13.3046875 67.33984375 C9.66024992 74.49762404 3.64171309 77.77891206 -3.6796875 80.53125 C-14.55097911 83.83097453 -26.86748298 83.05177313 -37.21875 78.28515625 C-44.91692139 73.96759631 -48.28643978 69.62721342 -51.78125 61.47265625 C-42.87125 56.52265625 -42.87125 56.52265625 -33.78125 51.47265625 C-31.91663757 53.33726868 -30.06076353 55.21071556 -28.21875 57.09765625 C-24.51904167 60.70250026 -22.43304055 60.6545721 -17.34375 60.72265625 C-15.61318359 60.76132813 -15.61318359 60.76132813 -13.84765625 60.80078125 C-10.80522699 60.73327112 -10.80522699 60.73327112 -8.87109375 59.08203125 C-7.59434506 57.52059801 -7.59434506 57.52059801 -7.78125 55.47265625 C-9.48750897 52.06013832 -12.5217016 50.92040451 -16.02978516 49.67333984 C-19.62828829 48.52570167 -23.23577389 47.41421419 -26.85742188 46.34179688 C-35.58268014 43.59599876 -42.27079344 39.59147805 -46.78125 31.47265625 C-48.8808538 25.17384485 -48.99185109 17.15019968 -46.21875 11.03515625 C-42.45547335 4.80673671 -36.77542284 0.64690953 -29.984375 -1.83203125 C-20.63550445 -3.86142022 -8.73953224 -4.29283362 0 0 Z " fill="#FEFEFE" transform="translate(1021.78125,95.52734375)"/>
<path d="M0 0 C7.92 0 15.84 0 24 0 C25.04800781 3.01125 26.09601562 6.0225 27.17578125 9.125 C28.19825858 12.06078904 29.22106204 14.99646427 30.24389648 17.93212891 C30.95126852 19.96293471 31.65830467 21.99385755 32.36499023 24.02490234 C33.38435711 26.95441475 34.40495533 29.88349574 35.42578125 32.8125 C35.73840408 33.71178223 36.05102692 34.61106445 36.37312317 35.53759766 C38.18058224 40.7192533 40.05251497 45.86927639 42 51 C43.78290043 48.32564936 44.67410772 46.35988484 45.67993164 43.36083984 C46.15536156 41.95455826 46.15536156 41.95455826 46.64039612 40.51986694 C46.97691696 39.51042023 47.31343781 38.50097351 47.66015625 37.4609375 C48.18505898 35.90604111 48.18505898 35.90604111 48.7205658 34.31973267 C49.83872057 31.00621126 50.95107832 27.69078535 52.0625 24.375 C53.17799483 21.05224944 54.29476694 17.72995106 55.41514587 14.40884399 C56.11259562 12.34097922 56.8071306 10.27212876 57.49855042 8.20223999 C57.81235153 7.27102325 58.12615265 6.33980652 58.44946289 5.38037109 C58.72544815 4.55669037 59.00143341 3.73300964 59.28578186 2.8843689 C60 1 60 1 61 0 C62.78071246 -0.08726223 64.5648314 -0.10699041 66.34765625 -0.09765625 C67.42724609 -0.09443359 68.50683594 -0.09121094 69.61914062 -0.08789062 C71.32360352 -0.07532227 71.32360352 -0.07532227 73.0625 -0.0625 C74.77276367 -0.05573242 74.77276367 -0.05573242 76.51757812 -0.04882812 C79.34510351 -0.03699747 82.1725264 -0.0205141 85 0 C80.25691097 13.79108717 75.23552901 27.45137709 70 41.0625 C68.64418792 44.59442291 67.29016527 48.12702702 65.9375 51.66015625 C65.61080322 52.51308258 65.28410645 53.36600891 64.94750977 54.24478149 C61.55140287 63.13403857 58.27249949 72.06454242 55 81 C46.75 81 38.5 81 30 81 C29.37544922 79.35298096 28.75089844 77.70596191 28.10742188 76.0090332 C26.00813469 70.4730632 23.90869764 64.93715005 21.80916595 59.40127277 C20.29318297 55.4040314 18.77732407 51.406743 17.26158142 47.40941048 C16.52514543 45.46739451 15.78858274 43.52542663 15.05200195 41.58346558 C14.08258699 39.027605 13.11373901 36.47153048 12.14526367 33.91531372 C9.94183547 28.10176188 7.73106527 22.29125905 5.49609375 16.48974609 C5.11892212 15.50846237 4.74175049 14.52717865 4.35314941 13.51615906 C3.65799638 11.70957063 2.96016019 9.90401147 2.25915527 8.09968567 C0 2.22261384 0 2.22261384 0 0 Z " fill="#FEFEFE" transform="translate(519,95)"/>
<path d="M0 0 C7.92 0 15.84 0 24 0 C25.04800781 3.01125 26.09601563 6.0225 27.17578125 9.125 C28.19825858 12.06078904 29.22106204 14.99646427 30.24389648 17.93212891 C30.95126852 19.96293471 31.65830467 21.99385755 32.36499023 24.02490234 C33.38435711 26.95441475 34.40495533 29.88349574 35.42578125 32.8125 C35.73840408 33.71178223 36.05102692 34.61106445 36.37312317 35.53759766 C38.18058224 40.7192533 40.05251497 45.86927639 42 51 C43.78290043 48.32564936 44.67410772 46.35988484 45.67993164 43.36083984 C46.15536156 41.95455826 46.15536156 41.95455826 46.64039612 40.51986694 C46.97691696 39.51042023 47.31343781 38.50097351 47.66015625 37.4609375 C48.18505898 35.90604111 48.18505898 35.90604111 48.7205658 34.31973267 C49.83872057 31.00621126 50.95107832 27.69078535 52.0625 24.375 C53.17799483 21.05224944 54.29476694 17.72995106 55.41514587 14.40884399 C56.11259562 12.34097922 56.8071306 10.27212876 57.49855042 8.20223999 C57.81235153 7.27102325 58.12615265 6.33980652 58.44946289 5.38037109 C58.72544815 4.55669037 59.00143341 3.73300964 59.28578186 2.8843689 C60 1 60 1 61 0 C62.78071246 -0.08726223 64.5648314 -0.10699041 66.34765625 -0.09765625 C67.42724609 -0.09443359 68.50683594 -0.09121094 69.61914062 -0.08789062 C71.32360352 -0.07532227 71.32360352 -0.07532227 73.0625 -0.0625 C74.77276367 -0.05573242 74.77276367 -0.05573242 76.51757812 -0.04882812 C79.34510351 -0.03699747 82.1725264 -0.0205141 85 0 C80.25691097 13.79108717 75.23552901 27.45137709 70 41.0625 C68.64418792 44.59442291 67.29016527 48.12702702 65.9375 51.66015625 C65.61080322 52.51308258 65.28410645 53.36600891 64.94750977 54.24478149 C61.55140287 63.13403857 58.27249949 72.06454242 55 81 C46.75 81 38.5 81 30 81 C29.37544922 79.35298096 28.75089844 77.70596191 28.10742188 76.0090332 C26.00813469 70.4730632 23.90869764 64.93715005 21.80916595 59.40127277 C20.29318297 55.4040314 18.77732407 51.406743 17.26158142 47.40941048 C16.52514543 45.46739451 15.78858274 43.52542663 15.05200195 41.58346558 C14.08258699 39.027605 13.11373901 36.47153048 12.14526367 33.91531372 C9.94183547 28.10176188 7.73106527 22.29125905 5.49609375 16.48974609 C5.11892212 15.50846237 4.74175049 14.52717865 4.35314941 13.51615906 C3.65799638 11.70957063 2.96016019 9.90401147 2.25915527 8.09968567 C0 2.22261384 0 2.22261384 0 0 Z " fill="#FEFEFE" transform="translate(408,95)"/>
<path d="M0 0 C6.93 0 13.86 0 21 0 C21 38.94 21 77.88 21 118 C14.07 118 7.14 118 0 118 C0 79.06 0 40.12 0 0 Z " fill="#FFFFFF" transform="translate(858,58)"/>
<path d="M0 0 C6.93 0 13.86 0 21 0 C21 38.94 21 77.88 21 118 C14.07 118 7.14 118 0 118 C0 79.06 0 40.12 0 0 Z " fill="#FFFFFF" transform="translate(696,58)"/>
<path d="M0 0 C6.93 0 13.86 0 21 0 C21 26.73 21 53.46 21 81 C14.07 81 7.14 81 0 81 C0 54.27 0 27.54 0 0 Z " fill="#FFFFFF" transform="translate(496,95)"/>
<path d="M0 0 C3.48258697 2.0005053 6.1940734 4.38814681 8 8 C8.59399497 12.53391095 8.95353822 17.00847738 6.94140625 21.2109375 C4.00816651 24.97883896 0.88244456 27.15428991 -3.84765625 27.98046875 C-9.1573306 28.02865091 -13.49212699 26.28169206 -17.5 22.875 C-20.28228875 17.54227989 -20.54462826 12.95425433 -18.9375 7.1875 C-14.47743019 -0.15003421 -8.12924167 -1.59996652 0 0 Z " fill="#FFFFFF" transform="translate(747,150)"/>
<path d="M0 0 C3.48940472 1.68263785 5.46868283 4.05811956 7.375 7.4375 C8.52054152 12.13422023 8.61955616 14.87152271 6.25 19.1875 C3.40471358 22.74410802 1.5822728 24.54289897 -2.8125 25.8125 C-6.77749751 26.04573515 -9.32748853 25.53577752 -13 24 C-16.24239682 20.96906384 -17.75957747 18.82645243 -19 14.5625 C-19 9.1765572 -17.39083993 5.69508617 -14 1.5625 C-9.39337932 -0.8367816 -5.0801059 -0.86406493 0 0 Z " fill="#FFFFFF" transform="translate(512,61)"/>
<path d="M0 0 C5 0 5 0 6.80078125 1.75 C7.29964844 2.4925 7.79851563 3.235 8.3125 4 C8.82425781 4.7425 9.33601562 5.485 9.86328125 6.25 C10.23839844 6.8275 10.61351562 7.405 11 8 C11.43699219 7.13375 11.43699219 7.13375 11.8828125 6.25 C12.29273438 5.5075 12.70265625 4.765 13.125 4 C13.71667969 2.88625 13.71667969 2.88625 14.3203125 1.75 C15.15175781 0.88375 15.15175781 0.88375 16 0 C17.98 0 19.96 0 22 0 C22 7.26 22 14.52 22 22 C20.35 22 18.7 22 17 22 C16.67 18.37 16.34 14.74 16 11 C14.68 13.31 13.36 15.62 12 18 C8.21503862 16.48601545 7.9927802 15.9855604 6 12 C5.67 15.3 5.34 18.6 5 22 C3.35 22 1.7 22 0 22 C0 14.74 0 7.48 0 0 Z " fill="#FFFFFF" transform="translate(1012,60)"/>
<path d="M0 0 C5.61 0 11.22 0 17 0 C17 1.32 17 2.64 17 4 C15.02 4 13.04 4 11 4 C11 9.94 11 15.88 11 22 C9.35 22 7.7 22 6 22 C6 16.06 6 10.12 6 4 C4.02 4 2.04 4 0 4 C0 2.68 0 1.36 0 0 Z " fill="#FFFFFF" transform="translate(994,60)"/>
<path d="M0 0 C0.33 0 0.66 0 1 0 C1 10.89 1 21.78 1 33 C0.67 33 0.34 33 0 33 C0 22.11 0 11.22 0 0 Z " fill="#FFFFFF" transform="translate(41,110)"/>
<path d="" fill="#FFFFFF" transform="translate(0,0)"/>
</svg>
