<?xml version="1.0" encoding="UTF-8"?>
<svg version="1.1" xmlns="http://www.w3.org/2000/svg" width="440" height="111">
<path d="M0 0 C1.21236328 0.02707031 1.21236328 0.02707031 2.44921875 0.0546875 C3.37154297 0.08949219 3.37154297 0.08949219 4.3125 0.125 C4.3125 0.785 4.3125 1.445 4.3125 2.125 C4.89950684 2.25173096 5.48651367 2.37846191 6.09130859 2.5090332 C9.66543801 3.50018824 12.74252408 5.47360062 15.9375 7.3125 C16.65679687 7.72177734 17.37609375 8.13105469 18.1171875 8.55273438 C22.66685628 11.15079164 27.16791089 13.82100361 31.64453125 16.54296875 C35.06248245 18.56971873 38.52998345 20.50165674 42 22.4375 C48.12763945 25.85854126 54.17658458 29.39022993 60.17651367 33.03051758 C63.13202451 34.82313625 66.1018351 36.56741731 69.125 38.2421875 C72.58714291 40.2872278 73.8452972 41.41383999 75.3125 45.125 C75.84392851 50.08499939 75.43312386 53.16420818 72.3125 57.125 C71.6525 57.125 70.9925 57.125 70.3125 57.125 C70.3125 57.785 70.3125 58.445 70.3125 59.125 C69.66925781 59.4653125 69.02601562 59.805625 68.36328125 60.15625 C63.07493502 62.9927952 57.90712021 65.95230238 52.8125 69.125 C48.0827669 72.06720486 43.30019133 74.80263885 38.390625 77.4296875 C34.48295741 79.58188006 30.64998448 81.85065507 26.8125 84.125 C20.38537433 87.93035764 13.92526851 91.64830466 7.3125 95.125 C6.63574219 95.49753906 5.95898438 95.87007813 5.26171875 96.25390625 C1.99675794 97.71299695 -1.23394073 97.79449997 -4.6875 97.125 C-7.70839981 95.3774257 -10.10358883 93.29282234 -11.6875 90.125 C-11.80133989 87.52762106 -11.85532205 84.95642718 -11.86450195 82.3581543 C-11.87107315 81.55634735 -11.87764435 80.75454041 -11.88441467 79.92843628 C-11.90416361 77.2686962 -11.91581373 74.60901263 -11.92578125 71.94921875 C-11.92985678 71.04159098 -11.9339323 70.1339632 -11.93813133 69.19883156 C-11.95899879 64.39500785 -11.97329763 59.59121276 -11.98266602 54.78735352 C-11.99373246 49.82390055 -12.02813305 44.86089565 -12.06783772 39.89760113 C-12.09397526 36.08259748 -12.10235529 32.26770105 -12.10594749 28.45261574 C-12.1108208 26.62297349 -12.12245594 24.79333626 -12.14098549 22.96378136 C-12.16531666 20.40216892 -12.16442322 17.84172175 -12.1574707 15.2800293 C-12.17028076 14.52503647 -12.18309082 13.77004364 -12.19628906 12.99217224 C-12.16055558 9.37777829 -11.80856227 7.31460427 -9.84562683 4.24031067 C-6.52254114 0.98315334 -4.58226942 -0.1328194 0 0 Z " fill="#000000" transform="translate(17.6875,6.875)"/>
<path d="M0 0 C0.33 2.31 0.66 4.62 1 7 C1.9075 6.21625 2.815 5.4325 3.75 4.625 C8.45201102 0.5641723 12.22307385 -0.51032738 18.3984375 -0.3828125 C23.96558578 0.43637749 27.70270442 3.60291245 31.4375 7.625 C35.20047559 13.3447229 34 16.0455984 34 24 C26.08 24.33 18.16 24.66 10 25 C12.49505962 27.49505962 13.67328888 27.35948376 17.125 27.625 C18.03507812 27.69976562 18.94515625 27.77453125 19.8828125 27.8515625 C20.58148438 27.90054688 21.28015625 27.94953125 22 28 C22 27.34 22 26.68 22 26 C23.625 25.25 23.625 25.25 26 25 C29.25 26.9375 29.25 26.9375 32 29 C30.13951134 33.15032087 28.52793474 35.32486605 24.3125 37.1875 C16.82449271 39.02418103 11.96292368 38.25252831 5.27734375 34.5234375 C1.70908829 32.13643985 -0.63271604 30.15093388 -2 26 C-2.38644024 21.30088665 -2.29348126 16.70222191 -2 12 C-4.94727535 12.10169161 -4.94727535 12.10169161 -8 13 C-10.88345746 17.20714992 -10.44798001 22.86700402 -10.625 27.8125 C-10.68300781 29.13797852 -10.68300781 29.13797852 -10.7421875 30.49023438 C-10.83600784 32.65982972 -10.91907326 34.82988547 -11 37 C-14.3 37 -17.6 37 -21 37 C-21 25.12 -21 13.24 -21 1 C-17.7 1 -14.4 1 -11 1 C-10.67 1.66 -10.34 2.32 -10 3 C-9.195625 2.2575 -9.195625 2.2575 -8.375 1.5 C-5.40641555 -0.37489544 -3.44687573 -0.23501425 0 0 Z M10 11 C9.34 12.32 8.68 13.64 8 15 C13.28 15 18.56 15 24 15 C21.6646381 9.86911049 21.6646381 9.86911049 18.125 9.0625 C14.74708103 8.99494162 12.91143295 9.30166411 10 11 Z " fill="#000000" transform="translate(132,38)"/>
<path d="M0 0 C0 0.66 0 1.32 0 2 C0.5775 2.20625 1.155 2.4125 1.75 2.625 C5.66850794 5.01964374 7.57583774 8.72751322 9 13 C9.78324646 19.50993371 8.82060288 24.6206849 5 30 C0.90661449 34.41078706 -2.45453459 35.8078894 -8.3125 36.25 C-12 36 -12 36 -19 33 C-19 38.28 -19 43.56 -19 49 C-22.3 49 -25.6 49 -29 49 C-29 32.83 -29 16.66 -29 0 C-25.7 0 -22.4 0 -19 0 C-19 0.66 -19 1.32 -19 2 C-18.401875 1.505 -17.80375 1.01 -17.1875 0.5 C-11.84556355 -2.01385245 -5.5789964 -1.85966547 0 0 Z M-17.6875 11.5625 C-19.26203641 15.68628585 -19.24977642 17.78200458 -18 22 C-16.58333333 24.58333333 -16.58333333 24.58333333 -14 26 C-9.98267037 26.80016627 -7.03803403 26.66540643 -3.5625 24.4375 C-1.45218443 21.1454077 -1 18.91300627 -1 15 C-2.08942272 11.4075121 -2.08942272 11.4075121 -5 9 C-10.15743023 7.72561011 -13.78700294 7.8434214 -17.6875 11.5625 Z " fill="#000000" transform="translate(345,40)"/>
<path d="M0 0 C6.6 0 13.2 0 20 0 C24.5 10.125 24.5 10.125 26.25 15.5625 C26.58515625 16.59503906 26.9203125 17.62757812 27.265625 18.69140625 C27.50796875 19.45324219 27.7503125 20.21507813 28 21 C28.20681396 20.39937744 28.41362793 19.79875488 28.62670898 19.17993164 C29.56064116 16.47307571 30.49900895 13.76777852 31.4375 11.0625 C31.76298828 10.11697266 32.08847656 9.17144531 32.42382812 8.19726562 C32.73642578 7.29814453 33.04902344 6.39902344 33.37109375 5.47265625 C33.65911865 4.64000244 33.94714355 3.80734863 34.24389648 2.94946289 C35 1 35 1 36 0 C37.85287502 -0.07226502 39.70833878 -0.0838122 41.5625 -0.0625 C42.57441406 -0.05347656 43.58632812 -0.04445312 44.62890625 -0.03515625 C45.41136719 -0.02355469 46.19382813 -0.01195312 47 0 C44.76089995 8.07275741 41.85969819 15.82660692 38.8125 23.625 C38.11737305 25.41744141 38.11737305 25.41744141 37.40820312 27.24609375 C36.27552073 30.16537826 35.13823379 33.08287551 34 36 C30.04 36 26.08 36 22 36 C16.555 21.645 16.555 21.645 11 7 C10.67 16.57 10.34 26.14 10 36 C6.37 36 2.74 36 -1 36 C-1.02472039 31.35522856 -1.04286968 26.71049543 -1.05493164 22.06567383 C-1.05996014 20.48558892 -1.06678378 18.90550866 -1.07543945 17.32543945 C-1.08756992 15.05418754 -1.09324313 12.78299715 -1.09765625 10.51171875 C-1.10281754 9.80536789 -1.10797882 9.09901703 -1.11329651 8.3712616 C-1.11364803 5.29745609 -0.9803186 2.9409558 0 0 Z " fill="#000000" transform="translate(201,39)"/>
<path d="M0 0 C1.03382813 0.00386719 2.06765625 0.00773437 3.1328125 0.01171875 C5.875 0.3125 5.875 0.3125 8.875 2.3125 C9.205 1.9825 9.535 1.6525 9.875 1.3125 C13.505 1.3125 17.135 1.3125 20.875 1.3125 C20.875 12.8625 20.875 24.4125 20.875 36.3125 C16.20833333 36.3125 11.54166667 36.3125 6.875 36.3125 C5.27032512 36.516882 3.66620516 36.7256434 2.0625 36.9375 C-2.17457948 37.39036501 -5.16717397 37.08310638 -9.125 35.3125 C-9.125 34.6525 -9.125 33.9925 -9.125 33.3125 C-9.99125 33.0340625 -9.99125 33.0340625 -10.875 32.75 C-14.24453511 30.59724146 -15.85344771 28.01156121 -17.125 24.3125 C-18.16731998 17.95258146 -17.92532289 12.77463936 -14.4375 7.25 C-10.56161697 1.87183673 -6.61300136 -0.1077306 0 0 Z M-5.6875 12.375 C-7.43589131 15.94779963 -7.49603568 18.37952181 -7.125 22.3125 C-6.795 22.9725 -6.465 23.6325 -6.125 24.3125 C-5.465 24.3125 -4.805 24.3125 -4.125 24.3125 C-4.125 24.9725 -4.125 25.6325 -4.125 26.3125 C2.16172837 27.71222293 2.16172837 27.71222293 7.9375 25.375 C10.59947436 21.16736311 10.57832262 19.23575833 9.875 14.3125 C8.60561576 11.62629818 8.60561576 11.62629818 5.875 10.3125 C1.27032881 9.42536151 -1.96716927 9.38058746 -5.6875 12.375 Z " fill="#000000" transform="translate(262.125,38.6875)"/>
<path d="M0 0 C3.3 0 6.6 0 10 0 C10.33 7.92 10.66 15.84 11 24 C16.37106883 26.42753666 16.37106883 26.42753666 19.3125 25.3125 C21.30335167 24.01444532 21.30335167 24.01444532 22 21 C22.14715199 19.37432921 22.24721867 17.74413143 22.31640625 16.11328125 C22.35830078 15.17548828 22.40019531 14.23769531 22.44335938 13.27148438 C22.48267578 12.29501953 22.52199219 11.31855469 22.5625 10.3125 C22.60568359 9.32443359 22.64886719 8.33636719 22.69335938 7.31835938 C22.79941542 4.87907028 22.90020974 2.43955346 23 0 C26.3 0 29.6 0 33 0 C33 11.88 33 23.76 33 36 C29.7 36 26.4 36 23 36 C22.67 35.34 22.34 34.68 22 34 C21.01 34.66 20.02 35.32 19 36 C14.43104157 36.7566428 9.89390713 37.04593826 5.7578125 34.76171875 C2.80480089 32.29270697 1.23375995 30.70127986 0 27 C-0.08315752 24.93501108 -0.10735878 22.8674211 -0.09765625 20.80078125 C-0.09443359 19.59228516 -0.09121094 18.38378906 -0.08789062 17.13867188 C-0.07951172 15.87603516 -0.07113281 14.61339844 -0.0625 13.3125 C-0.05573242 11.40114258 -0.05573242 11.40114258 -0.04882812 9.45117188 C-0.03702873 6.30073436 -0.02056597 3.15039051 0 0 Z " fill="#000000" transform="translate(370,40)"/>
<path d="M0 0 C3.36433436 1.57068334 6.3568562 3.37600942 9 6 C9 6.99 9 7.98 9 9 C3.60490463 12.0653951 3.60490463 12.0653951 0.6875 11.75 C-1 11 -1 11 -2 10 C-3.66617115 9.95936168 -5.33388095 9.957279 -7 10 C-7 10.66 -7 11.32 -7 12 C-6.18015625 12.24234375 -5.3603125 12.4846875 -4.515625 12.734375 C-3.43796875 13.06953125 -2.3603125 13.4046875 -1.25 13.75 C-0.18265625 14.07484375 0.8846875 14.3996875 1.984375 14.734375 C5.23946284 16.10049995 6.90951756 17.16255861 9 20 C9.42578125 22.7265625 9.42578125 22.7265625 9.3125 25.625 C9.28800781 26.58664063 9.26351563 27.54828125 9.23828125 28.5390625 C9 31 9 31 8 33 C7.34 33 6.68 33 6 33 C6 33.66 6 34.32 6 35 C0.59006226 38.32919246 -5.903114 37.80276819 -12 37 C-15.02521422 35.52801583 -17.23659912 33.8903864 -19 31 C-19 29.68 -19 28.36 -19 27 C-13.375 24 -13.375 24 -10 24 C-9.34 24.99 -8.68 25.98 -8 27 C-4.43230448 27.73606499 -4.43230448 27.73606499 -1 28 C-1 26.68 -1 25.36 -1 24 C-2.19625 23.731875 -3.3925 23.46375 -4.625 23.1875 C-9.74329798 21.9011313 -14.5886427 20.20538012 -18 16 C-18.92402251 11.55470252 -18.56862505 7.95447776 -16.25 4.0625 C-11.36969754 -0.41111059 -6.43914857 -1.09662356 0 0 Z " fill="#000000" transform="translate(424,39)"/>
<path d="M0 0 C3.63 0 7.26 0 11 0 C13.31 6.6 15.62 13.2 18 20 C19.33601613 17.32796774 20.48023354 14.87937045 21.5078125 12.109375 C21.77207031 11.40039062 22.03632813 10.69140625 22.30859375 9.9609375 C22.57800781 9.23132812 22.84742188 8.50171875 23.125 7.75 C23.40214844 7.00492188 23.67929688 6.25984375 23.96484375 5.4921875 C24.64522416 3.66219882 25.32288243 1.83119847 26 0 C29.63 0 33.26 0 37 0 C34.92094498 8.08819469 32.34916476 15.82501305 29.375 23.625 C28.96765625 24.71167969 28.5603125 25.79835938 28.140625 26.91796875 C25.13799987 34.86200013 25.13799987 34.86200013 24 36 C22.14712498 36.07226502 20.29166122 36.0838122 18.4375 36.0625 C17.42558594 36.05347656 16.41367188 36.04445312 15.37109375 36.03515625 C14.19740234 36.01775391 14.19740234 36.01775391 13 36 C9.71888835 28.38088015 6.66945814 20.67774702 3.6875 12.9375 C3.32591797 12.0091333 2.96433594 11.0807666 2.59179688 10.12426758 C2.25599609 9.24665771 1.92019531 8.36904785 1.57421875 7.46484375 C1.27088623 6.677146 0.96755371 5.88944824 0.6550293 5.07788086 C0 3 0 3 0 0 Z " fill="#000000" transform="translate(163,39)"/>
<path d="M0 0 C3.96 0 7.92 0 12 0 C12.33 1.32 12.66 2.64 13 4 C13.680625 3.34 14.36125 2.68 15.0625 2 C18.64457375 -0.43885872 20.75519536 -0.33292585 25 0 C25 3.96 25 7.92 25 12 C22.75390625 12.42317708 20.5078125 12.84635417 18.26171875 13.26953125 C15.5976736 14.12993961 14.68407171 14.76955109 13 17 C12.49335383 19.90087655 12.49335383 19.90087655 12.48828125 23.19921875 C12.45283203 24.40771484 12.41738281 25.61621094 12.38085938 26.86132812 C12.34702148 28.7552832 12.34702148 28.7552832 12.3125 30.6875 C12.27833984 31.96173828 12.24417969 33.23597656 12.20898438 34.54882812 C12.12639216 37.69913103 12.05727665 40.84915157 12 44 C10.18757948 44.02687279 8.37504767 44.04633715 6.5625 44.0625 C5.55316406 44.07410156 4.54382813 44.08570313 3.50390625 44.09765625 C1 44 1 44 0 43 C-0.09268999 41.64905018 -0.11747326 40.29332909 -0.11352539 38.93920898 C-0.11344986 38.07839218 -0.11337433 37.21757538 -0.11329651 36.33067322 C-0.10813522 35.39526199 -0.10297394 34.45985077 -0.09765625 33.49609375 C-0.0962413 32.54307877 -0.09482635 31.59006378 -0.09336853 30.60816956 C-0.08775152 27.55124835 -0.07519616 24.49439923 -0.0625 21.4375 C-0.05748719 19.37044376 -0.05292391 17.30338638 -0.04882812 15.23632812 C-0.03777656 10.15752412 -0.02050055 5.0787743 0 0 Z " fill="#ECECEC" transform="translate(27,38)"/>
<path d="M0 0 C3.63 0 7.26 0 11 0 C11 16.83 11 33.66 11 51 C7.37 51 3.74 51 0 51 C0 34.17 0 17.34 0 0 Z " fill="#000000" transform="translate(286,24)"/>
<path d="M0 0 C3.3 0 6.6 0 10 0 C10 16.83 10 33.66 10 51 C6.7 51 3.4 51 0 51 C0 34.17 0 17.34 0 0 Z " fill="#000000" transform="translate(356,24)"/>
<path d="M0 0 C1.60379341 -0.05416188 3.20811406 -0.09286638 4.8125 -0.125 C5.70582031 -0.14820312 6.59914063 -0.17140625 7.51953125 -0.1953125 C10 0 10 0 13 2 C13.33 1.34 13.66 0.68 14 0 C15.32 0 16.64 0 18 0 C18 3.3 18 6.6 18 10 C16.68 10.33 15.36 10.66 14 11 C13.67 10.34 13.34 9.68 13 9 C12.34 9 11.68 9 11 9 C10.67 9.66 10.34 10.32 10 11 C9.01 11 8.02 11 7 11 C7 8.03 7 5.06 7 2 C6.34 2 5.68 2 5 2 C5 4.97 5 7.94 5 11 C4.01 11 3.02 11 2 11 C2 8.03 2 5.06 2 2 C1.34 2 0.68 2 0 2 C0 1.34 0 0.68 0 0 Z " fill="#000000" transform="translate(415,25)"/>
<path d="M0 0 C6.3833448 -0.48176187 6.3833448 -0.48176187 9 1.5625 C10.44387305 5.08194055 10.00611184 7.37799738 9 11 C7.3125 12.5 7.3125 12.5 5 13 C1.875 12.8125 1.875 12.8125 -1 12 C-3.56687367 8.1496895 -2.83288724 6.41430237 -2 2 C-1.34 2 -0.68 2 0 2 C0 1.34 0 0.68 0 0 Z " fill="#000000" transform="translate(303,63)"/>
<path d="M0 0 C3.5625 0.375 3.5625 0.375 5.5625 2.0625 C6.84050253 5.01788086 6.64301862 6.36498383 5.5625 9.375 C4.3125 11.1875 4.3125 11.1875 2.5625 12.375 C-0.25865488 12.79817323 -1.77700907 12.76218434 -4.25 11.3125 C-6.084421 8.31949731 -5.74857576 5.79683337 -5.4375 2.375 C-3.4375 0.375 -3.4375 0.375 0 0 Z " fill="#000000" transform="translate(205.4375,24.625)"/>
</svg>
